<svg width="291" height="39" viewBox="0 0 291 39" fill="none" xmlns="http://www.w3.org/2000/svg">
<path d="M0.679375 30V2H12.7994C15.306 2 17.466 2.41333 19.2794 3.24C21.0927 4.04 22.4927 5.2 23.4794 6.72C24.466 8.24 24.9594 10.0533 24.9594 12.16C24.9594 14.24 24.466 16.04 23.4794 17.56C22.4927 19.0533 21.0927 20.2 19.2794 21C17.466 21.8 15.306 22.2 12.7994 22.2H4.27938L7.15938 19.36V30H0.679375ZM18.4794 30L11.4794 19.84H18.3994L25.4794 30H18.4794ZM7.15938 20.08L4.27938 17.04H12.4394C14.4394 17.04 15.9327 16.6133 16.9194 15.76C17.906 14.88 18.3994 13.68 18.3994 12.16C18.3994 10.6133 17.906 9.41333 16.9194 8.56C15.9327 7.70667 14.4394 7.28 12.4394 7.28H4.27938L7.15938 4.2V20.08ZM32.3734 38.08C31.2534 38.08 30.1468 37.9067 29.0534 37.56C27.9601 37.2133 27.0668 36.7333 26.3734 36.12L28.6534 31.68C29.1334 32.1067 29.6801 32.44 30.2934 32.68C30.9334 32.92 31.5601 33.04 32.1734 33.04C33.0534 33.04 33.7468 32.8267 34.2534 32.4C34.7868 32 35.2668 31.32 35.6934 30.36L36.8134 27.72L37.2934 27.04L45.0134 8.48H51.0134L41.2934 31.32C40.6001 33.0533 39.8001 34.4133 38.8934 35.4C38.0134 36.3867 37.0268 37.08 35.9334 37.48C34.8668 37.88 33.6801 38.08 32.3734 38.08ZM36.0534 30.84L26.4534 8.48H32.8934L40.3334 26.48L36.0534 30.84ZM62.2138 30.32C60.1871 30.32 58.3604 29.8667 56.7338 28.96C55.1071 28.0267 53.8138 26.7333 52.8538 25.08C51.9204 23.4267 51.4538 21.48 51.4538 19.24C51.4538 16.9733 51.9204 15.0133 52.8538 13.36C53.8138 11.7067 55.1071 10.4267 56.7338 9.52C58.3604 8.61333 60.1871 8.16 62.2138 8.16C64.0271 8.16 65.6138 8.56 66.9738 9.36C68.3338 10.16 69.3871 11.3733 70.1338 13C70.8804 14.6267 71.2538 16.7067 71.2538 19.24C71.2538 21.7467 70.8938 23.8267 70.1738 25.48C69.4538 27.1067 68.4138 28.32 67.0538 29.12C65.7204 29.92 64.1071 30.32 62.2138 30.32ZM63.2938 25.2C64.3071 25.2 65.2271 24.96 66.0538 24.48C66.8804 24 67.5338 23.32 68.0138 22.44C68.5204 21.5333 68.7738 20.4667 68.7738 19.24C68.7738 17.9867 68.5204 16.92 68.0138 16.04C67.5338 15.16 66.8804 14.48 66.0538 14C65.2271 13.52 64.3071 13.28 63.2938 13.28C62.2538 13.28 61.3204 13.52 60.4938 14C59.6671 14.48 59.0004 15.16 58.4938 16.04C58.0138 16.92 57.7738 17.9867 57.7738 19.24C57.7738 20.4667 58.0138 21.5333 58.4938 22.44C59.0004 23.32 59.6671 24 60.4938 24.48C61.3204 24.96 62.2538 25.2 63.2938 25.2ZM68.9338 30V25.6L69.0538 19.2L68.6538 12.84V0.319998H74.8938V30H68.9338ZM93.8691 30V25.8L93.4691 24.88V17.36C93.4691 16.0267 93.0557 14.9867 92.2291 14.24C91.4291 13.4933 90.1891 13.12 88.5091 13.12C87.3624 13.12 86.2291 13.3067 85.1091 13.68C84.0157 14.0267 83.0824 14.5067 82.3091 15.12L80.0691 10.76C81.2424 9.93333 82.6557 9.29333 84.3091 8.84C85.9624 8.38667 87.6424 8.16 89.3491 8.16C92.6291 8.16 95.1757 8.93333 96.9891 10.48C98.8024 12.0267 99.7091 14.44 99.7091 17.72V30H93.8691ZM87.3091 30.32C85.6291 30.32 84.1891 30.04 82.9891 29.48C81.7891 28.8933 80.8691 28.1067 80.2291 27.12C79.5891 26.1333 79.2691 25.0267 79.2691 23.8C79.2691 22.52 79.5757 21.4 80.1891 20.44C80.8291 19.48 81.8291 18.7333 83.1891 18.2C84.5491 17.64 86.3224 17.36 88.5091 17.36H94.2291V21H89.1891C87.7224 21 86.7091 21.24 86.1491 21.72C85.6157 22.2 85.3491 22.8 85.3491 23.52C85.3491 24.32 85.6557 24.96 86.2691 25.44C86.9091 25.8933 87.7757 26.12 88.8691 26.12C89.9091 26.12 90.8424 25.88 91.6691 25.4C92.4957 24.8933 93.0957 24.16 93.4691 23.2L94.4291 26.08C93.9757 27.4667 93.1491 28.52 91.9491 29.24C90.7491 29.96 89.2024 30.32 87.3091 30.32ZM130.525 30.48C128.365 30.48 126.351 30.1333 124.485 29.44C122.645 28.72 121.045 27.7067 119.685 26.4C118.325 25.0933 117.258 23.56 116.485 21.8C115.738 20.04 115.365 18.1067 115.365 16C115.365 13.8933 115.738 11.96 116.485 10.2C117.258 8.44 118.325 6.90667 119.685 5.6C121.071 4.29333 122.685 3.29333 124.525 2.6C126.365 1.88 128.378 1.52 130.565 1.52C132.991 1.52 135.178 1.94667 137.125 2.8C139.098 3.62667 140.751 4.85333 142.085 6.48L137.925 10.32C136.965 9.22667 135.898 8.41333 134.725 7.88C133.551 7.32 132.271 7.04 130.885 7.04C129.578 7.04 128.378 7.25333 127.285 7.68C126.191 8.10666 125.245 8.72 124.445 9.52C123.645 10.32 123.018 11.2667 122.565 12.36C122.138 13.4533 121.925 14.6667 121.925 16C121.925 17.3333 122.138 18.5467 122.565 19.64C123.018 20.7333 123.645 21.68 124.445 22.48C125.245 23.28 126.191 23.8933 127.285 24.32C128.378 24.7467 129.578 24.96 130.885 24.96C132.271 24.96 133.551 24.6933 134.725 24.16C135.898 23.6 136.965 22.76 137.925 21.64L142.085 25.48C140.751 27.1067 139.098 28.3467 137.125 29.2C135.178 30.0533 132.978 30.48 130.525 30.48ZM155.518 30.32C153.225 30.32 151.185 29.84 149.398 28.88C147.638 27.92 146.238 26.6133 145.198 24.96C144.185 23.28 143.678 21.3733 143.678 19.24C143.678 17.08 144.185 15.1733 145.198 13.52C146.238 11.84 147.638 10.5333 149.398 9.6C151.185 8.64 153.225 8.16 155.518 8.16C157.785 8.16 159.812 8.64 161.598 9.6C163.385 10.5333 164.785 11.8267 165.798 13.48C166.812 15.1333 167.318 17.0533 167.318 19.24C167.318 21.3733 166.812 23.28 165.798 24.96C164.785 26.6133 163.385 27.92 161.598 28.88C159.812 29.84 157.785 30.32 155.518 30.32ZM155.518 25.2C156.558 25.2 157.492 24.96 158.318 24.48C159.145 24 159.798 23.32 160.278 22.44C160.758 21.5333 160.998 20.4667 160.998 19.24C160.998 17.9867 160.758 16.92 160.278 16.04C159.798 15.16 159.145 14.48 158.318 14C157.492 13.52 156.558 13.28 155.518 13.28C154.478 13.28 153.545 13.52 152.718 14C151.892 14.48 151.225 15.16 150.718 16.04C150.238 16.92 149.998 17.9867 149.998 19.24C149.998 20.4667 150.238 21.5333 150.718 22.44C151.225 23.32 151.892 24 152.718 24.48C153.545 24.96 154.478 25.2 155.518 25.2ZM184.569 8.16C186.276 8.16 187.796 8.50667 189.129 9.2C190.489 9.86667 191.556 10.9067 192.329 12.32C193.103 13.7067 193.489 15.4933 193.489 17.68V30H187.249V18.64C187.249 16.9067 186.863 15.6267 186.089 14.8C185.343 13.9733 184.276 13.56 182.889 13.56C181.903 13.56 181.009 13.7733 180.209 14.2C179.436 14.6 178.823 15.2267 178.369 16.08C177.943 16.9333 177.729 18.0267 177.729 19.36V30H171.489V8.48H177.449V14.44L176.329 12.64C177.103 11.2 178.209 10.0933 179.649 9.32C181.089 8.54667 182.729 8.16 184.569 8.16ZM212.226 8.16C213.932 8.16 215.452 8.50667 216.786 9.2C218.146 9.86667 219.212 10.9067 219.986 12.32C220.759 13.7067 221.146 15.4933 221.146 17.68V30H214.906V18.64C214.906 16.9067 214.519 15.6267 213.746 14.8C212.999 13.9733 211.932 13.56 210.546 13.56C209.559 13.56 208.666 13.7733 207.866 14.2C207.092 14.6 206.479 15.2267 206.026 16.08C205.599 16.9333 205.386 18.0267 205.386 19.36V30H199.146V8.48H205.106V14.44L203.986 12.64C204.759 11.2 205.866 10.0933 207.306 9.32C208.746 8.54667 210.386 8.16 212.226 8.16ZM237.638 30.32C235.185 30.32 233.025 29.84 231.158 28.88C229.318 27.92 227.891 26.6133 226.878 24.96C225.865 23.28 225.358 21.3733 225.358 19.24C225.358 17.08 225.851 15.1733 226.838 13.52C227.851 11.84 229.225 10.5333 230.958 9.6C232.691 8.64 234.651 8.16 236.838 8.16C238.945 8.16 240.838 8.61333 242.518 9.52C244.225 10.4 245.571 11.68 246.558 13.36C247.545 15.0133 248.038 17 248.038 19.32C248.038 19.56 248.025 19.84 247.998 20.16C247.971 20.4533 247.945 20.7333 247.918 21H230.438V17.36H244.638L242.238 18.44C242.238 17.32 242.011 16.3467 241.558 15.52C241.105 14.6933 240.478 14.0533 239.678 13.6C238.878 13.12 237.945 12.88 236.878 12.88C235.811 12.88 234.865 13.12 234.038 13.6C233.238 14.0533 232.611 14.7067 232.158 15.56C231.705 16.3867 231.478 17.3733 231.478 18.52V19.48C231.478 20.6533 231.731 21.6933 232.238 22.6C232.771 23.48 233.505 24.16 234.438 24.64C235.398 25.0933 236.518 25.32 237.798 25.32C238.945 25.32 239.945 25.1467 240.798 24.8C241.678 24.4533 242.478 23.9333 243.198 23.24L246.518 26.84C245.531 27.96 244.291 28.8267 242.798 29.44C241.305 30.0267 239.585 30.32 237.638 30.32ZM262.593 30.32C260.273 30.32 258.206 29.8533 256.393 28.92C254.579 27.96 253.153 26.64 252.113 24.96C251.099 23.28 250.593 21.3733 250.593 19.24C250.593 17.08 251.099 15.1733 252.113 13.52C253.153 11.84 254.579 10.5333 256.393 9.6C258.206 8.64 260.273 8.16 262.593 8.16C264.859 8.16 266.833 8.64 268.513 9.6C270.193 10.5333 271.433 11.88 272.233 13.64L267.393 16.24C266.833 15.2267 266.126 14.48 265.273 14C264.446 13.52 263.539 13.28 262.553 13.28C261.486 13.28 260.526 13.52 259.673 14C258.819 14.48 258.139 15.16 257.633 16.04C257.153 16.92 256.913 17.9867 256.913 19.24C256.913 20.4933 257.153 21.56 257.633 22.44C258.139 23.32 258.819 24 259.673 24.48C260.526 24.96 261.486 25.2 262.553 25.2C263.539 25.2 264.446 24.9733 265.273 24.52C266.126 24.04 266.833 23.28 267.393 22.24L272.233 24.88C271.433 26.6133 270.193 27.96 268.513 28.92C266.833 29.8533 264.859 30.32 262.593 30.32ZM284.938 30.32C282.404 30.32 280.431 29.68 279.018 28.4C277.604 27.0933 276.898 25.16 276.898 22.6V3.72H283.138V22.52C283.138 23.4267 283.378 24.1333 283.858 24.64C284.338 25.12 284.991 25.36 285.818 25.36C286.804 25.36 287.644 25.0933 288.338 24.56L290.018 28.96C289.378 29.4133 288.604 29.76 287.698 30C286.818 30.2133 285.898 30.32 284.938 30.32ZM273.578 13.76V8.96H288.498V13.76H273.578Z" fill="white"/>
</svg>
